<?xml version="1.0" encoding="UTF-8"?>
<svg width="512" height="512" viewBox="0 0 512 512" xmlns="http://www.w3.org/2000/svg">
  <circle cx="256" cy="256" r="256" fill="#0B3B39"/>
  <g transform="translate(64, 64) scale(0.75)" fill="white">
    <path d="M384 256c0 70.7-57.3 128-128 128s-128-57.3-128-128 57.3-128 128-128 128 57.3 128 128z"/>
    <g transform="translate(128, 128) scale(0.5)">
      <path d="M256 128c0 0-32-32-96-32s-96 32-96 32v192s32-32 96-32 96 32 96 32V128z"/>
      <path d="M256 128c0 0 32-32 96-32s96 32 96 32v192s-32-32-96-32-96 32-96 32V128z"/>
    </g>
  </g>
</svg> 